<svg id="图层_1" data-name="图层 1" xmlns="http://www.w3.org/2000/svg" viewBox="0 0 2016 1847"><defs><style>.cls-1{fill:#f09900;}</style></defs><path d="M297.52,1609.85a35.83,35.83,0,0,1-.55,6.61,15.07,15.07,0,0,1-1.65,4.75,6.37,6.37,0,0,1-2.75,2.66,8.11,8.11,0,0,1-3.57.79q-3.3,0-11-3.75a201.62,201.62,0,0,0-20.63-8.3,246,246,0,0,0-30.93-8.3q-18-3.75-42.76-3.75-29.42,0-52.79,7.71t-39.6,21.33A92.45,92.45,0,0,0,66.41,1662a95.81,95.81,0,0,0-8.66,40.69q0,24.51,9.48,43.47a92.43,92.43,0,0,0,26.26,32q16.77,13,40,19.75t51,6.72a199.79,199.79,0,0,0,33.41-2.86,157.37,157.37,0,0,0,31.48-8.6v-74.48H166.91a8,8,0,0,1-7-3.36q-2.34-3.36-2.34-10.47a32.05,32.05,0,0,1,.55-6.42,11,11,0,0,1,1.79-4.35,7.72,7.72,0,0,1,2.88-2.47,9.65,9.65,0,0,1,4.13-.79h113a24.16,24.16,0,0,1,6.05.79,19.39,19.39,0,0,1,5.5,2.37,10.77,10.77,0,0,1,3.85,4.35,14,14,0,0,1,1.37,6.32v97.4a15.81,15.81,0,0,1-2.47,8.9q-2.48,3.75-10.45,6.61t-20.62,6.23q-12.64,3.36-26.12,5.73t-27.23,3.55q-13.74,1.19-27.22,1.19-41.24,0-73.69-9.19T54,1798.92a115.2,115.2,0,0,1-34.23-40.7Q8,1734.52,8,1705.27q0-30.42,12.78-55.12a122.54,122.54,0,0,1,36-42.08q23.23-17.38,55.82-27t72.18-9.58a269.36,269.36,0,0,1,38.22,2.56q17.88,2.58,31.76,6a157.24,157.24,0,0,1,23.37,7.51q9.5,4.05,13.07,6.62a14,14,0,0,1,4.95,5.92C297.06,1602.41,297.52,1605.63,297.52,1609.85Z"/><path d="M847.87,1650a68.46,68.46,0,0,1-8.8,34.58q-8.8,15.4-25.16,26.28t-40.14,16.79q-23.79,5.93-56.79,5.93H676.56v92.07a3.72,3.72,0,0,1-1.23,2.76,8.81,8.81,0,0,1-3.85,1.88,51.46,51.46,0,0,1-7.15,1.18,130.44,130.44,0,0,1-22.82,0,56.06,56.06,0,0,1-7.29-1.18,7.83,7.83,0,0,1-3.85-1.88,3.9,3.9,0,0,1-1.1-2.76V1589.69q0-7.89,5.77-11.26a25.24,25.24,0,0,1,12.93-3.36h76.16q11.55,0,22.14.69t25,3a128.78,128.78,0,0,1,29.42,8.49,92.48,92.48,0,0,1,25.44,15.32,63.72,63.72,0,0,1,16.08,21A61,61,0,0,1,847.87,1650Zm-49.77,2.77q0-15.6-8.11-26.08A50.09,50.09,0,0,0,769.92,1611a85.94,85.94,0,0,0-24.75-6.52,231.9,231.9,0,0,0-24.89-1.38H676.56v102.54h42.62q21.45,0,35.61-4t23.79-11A46.9,46.9,0,0,0,793.15,1674,46.36,46.36,0,0,0,798.1,1652.72Z"/><path d="M1537.05,1647.58a12.66,12.66,0,0,1-.55,3.36,35,35,0,0,1-1.92,4.94l-72.87,168.92a7.93,7.93,0,0,1-2.61,3.56,13.41,13.41,0,0,1-4.95,2.18,49.11,49.11,0,0,1-8.66,1.08q-5.51.3-13.75.3-8.54,0-14.3-.4a62.15,62.15,0,0,1-9.21-1.18,12.13,12.13,0,0,1-5.09-2.18,8.65,8.65,0,0,1-2.47-3.36l-52-129-.55-1.78-.55,1.78-48.12,129a7.93,7.93,0,0,1-2.61,3.56,13.63,13.63,0,0,1-5.37,2.18,59.29,59.29,0,0,1-9.21,1.08q-5.64.3-13.88.3c-5.69,0-10.31-.13-13.89-.4a60.84,60.84,0,0,1-8.8-1.18,12.14,12.14,0,0,1-5.08-2.18,8.68,8.68,0,0,1-2.48-3.36l-72.32-168.92a32.71,32.71,0,0,1-1.92-4.94,12.66,12.66,0,0,1-.55-3.36,3.81,3.81,0,0,1,1.1-2.86,8.36,8.36,0,0,1,3.71-1.78,34.46,34.46,0,0,1,7-.89q4.39-.19,10.73-.2,7.69,0,12.37.3a37.21,37.21,0,0,1,7.15,1,7.19,7.19,0,0,1,3.58,2,13.38,13.38,0,0,1,1.92,3.07l59.67,146.59.55,1.78.55-1.78,54.72-146.59a7.55,7.55,0,0,1,1.78-3.07,8.19,8.19,0,0,1,3.71-2,35.48,35.48,0,0,1,6.74-1c2.84-.2,6.56-.3,11.14-.3q6.6,0,10.86.3a35.48,35.48,0,0,1,6.74,1A7.55,7.55,0,0,1,1371,1645a7.92,7.92,0,0,1,1.65,2.77l59.12,147,.55,1.78.27-1.78,58.85-146.59a7.55,7.55,0,0,1,1.78-3.07,8.22,8.22,0,0,1,3.86-2,39.26,39.26,0,0,1,7.14-1c3-.2,6.92-.3,11.69-.3q6.6,0,10.58.2a24,24,0,0,1,6.33,1,8.42,8.42,0,0,1,3.3,1.78A3.8,3.8,0,0,1,1537.05,1647.58Z"/><path d="M1794.33,1729.18q0,7.71-5.39,11a23.21,23.21,0,0,1-12.29,3.26h-163a80.64,80.64,0,0,0,4.14,26.68,47.68,47.68,0,0,0,13.82,20.35q9.67,8.49,25.14,13t37.86,4.54a214.38,214.38,0,0,0,31.5-2.07q13.81-2.09,23.9-4.65t16.58-4.64q6.5-2.07,9.81-2.07a8.24,8.24,0,0,1,3.45.69,5.16,5.16,0,0,1,2.35,2.07,11.22,11.22,0,0,1,1.24,3.85,36.76,36.76,0,0,1,.42,6,31.54,31.54,0,0,1-.28,4.45,28,28,0,0,1-.68,3.36,7.43,7.43,0,0,1-1.38,2.66,12.74,12.74,0,0,1-2.47,2.27q-1.52,1.1-8.94,3.56a166.11,166.11,0,0,1-19.25,4.84q-11.82,2.37-27.36,4.25a276.9,276.9,0,0,1-33.13,1.88q-30.53,0-53.48-6.13t-38.63-18.17a76.06,76.06,0,0,1-23.65-30.23q-8-18.18-8-42.28,0-22.92,8.25-41.2a84.71,84.71,0,0,1,23.79-31q15.52-12.74,37.53-19.56t49.22-6.81q29.14,0,49.63,6.71t33.69,18.08a69.11,69.11,0,0,1,19.38,26.67,86.36,86.36,0,0,1,6.19,32.7Zm-45.65-9.68q.83-25.68-15.91-40.31t-49.65-14.62q-16.89,0-29.61,4.55a65.4,65.4,0,0,0-21.3,12.05,53.2,53.2,0,0,0-13.28,17.49,54.94,54.94,0,0,0-5.26,20.84Z"/><path d="M2008,1659.63c0,2.9-.1,5.34-.28,7.31a13.56,13.56,0,0,1-1.1,4.65,6.74,6.74,0,0,1-2.06,2.57,5.81,5.81,0,0,1-3.44.89,20.5,20.5,0,0,1-5.36-.89q-3.16-.9-7.15-1.78c-2.66-.59-5.63-1.15-8.93-1.68a67.84,67.84,0,0,0-10.73-.79,47,47,0,0,0-13.47,2,58.1,58.1,0,0,0-13.89,6.52,99.92,99.92,0,0,0-15.26,12.06q-8,7.5-17.6,18.37v117a3.61,3.61,0,0,1-1.1,2.67,8.92,8.92,0,0,1-3.57,1.88,33.87,33.87,0,0,1-6.88,1.18q-4.4.4-11.27.4-6.6,0-11-.4a36.67,36.67,0,0,1-7-1.18,7.8,7.8,0,0,1-3.57-1.88,3.83,3.83,0,0,1-1-2.67V1648a4.29,4.29,0,0,1,.83-2.67,7.3,7.3,0,0,1,3.3-2,24.82,24.82,0,0,1,6.32-1.18q3.86-.3,10.18-.3,6,0,10,.3a21.59,21.59,0,0,1,6.19,1.18,8.6,8.6,0,0,1,3.16,2,3.89,3.89,0,0,1,1,2.67v25.88a160,160,0,0,1,19.11-17.39,104.16,104.16,0,0,1,16.92-10.57,63.28,63.28,0,0,1,15.81-5.33,84.66,84.66,0,0,1,15.81-1.48c2.38,0,5.08.09,8.11.29s6.18.56,9.49,1.09,6.27,1.12,8.93,1.78a22.85,22.85,0,0,1,5.64,2,6.55,6.55,0,0,1,2.2,1.88,10,10,0,0,1,1,2.27,18.65,18.65,0,0,1,.55,4.05C2007.93,1654.2,2008,1656.61,2008,1659.63Z"/><path class="cls-1" d="M524,1640c-6.38-.08-12.74-.13-19.12-.19-11.21-.09-22.42-.27-33.63,0-3.14,0-6.25.15-9.39.28-2.43.11-4.83.3-7.2.59-1.35.16-2.71.28-4.07.36-16.82.92-32.42,6.59-47,16.43a97.78,97.78,0,0,0-16.89,14.45c-.4.43-.78.87-1.18,1.32a93.41,93.41,0,0,0-7.52,9.48l-.1.14a54.26,54.26,0,0,0-9.64,30.42l-1,86.23A38.19,38.19,0,0,0,402.85,1838q9.57.11,19.13.18c10.92.09,21.84.26,32.77,0l-.24,0c3.14,0,6.25-.14,9.39-.28,2.43-.11,4.83-.3,7.2-.59,1.35-.16,2.71-.28,4.07-.36,16.81-.91,32.42-6.59,47-16.43A98.16,98.16,0,0,0,539,1806.11,99.37,99.37,0,0,1,514.25,1826a102.58,102.58,0,0,0,9-5.47,97.65,97.65,0,0,0,16.88-14.45c.4-.43.78-.86,1.18-1.32a92.28,92.28,0,0,0,7.53-9.47l.1-.14a54.27,54.27,0,0,0,9.63-30.42l1-86.23A38.2,38.2,0,0,0,524,1640Zm-60.92,172.47a71.52,71.52,0,0,1-18.73-2.24c-2.23-.58-4.44-1.24-6.58-2,1.79.72,3.63,1.4,5.48,2a72.41,72.41,0,0,1-52.94-55.45c.59,2.18,1.29,4.38,2.07,6.56A81.79,81.79,0,0,0,403.33,1782a71.75,71.75,0,0,1-11.89-27.25,73.15,73.15,0,0,1-1.48-13.91,72.38,72.38,0,1,1,73.15,71.6Z"/><path class="cls-1" d="M910,1678.54l1,86.23a54.2,54.2,0,0,0,9.64,30.42l.09.14a92.28,92.28,0,0,0,7.53,9.47c.4.46.78.89,1.18,1.32a97.34,97.34,0,0,0,16.89,14.45,101,101,0,0,0,9,5.47,99.14,99.14,0,0,1-24.76-19.93,98.09,98.09,0,0,0,16.88,14.45c14.54,9.84,30.15,15.52,47,16.43,1.35.08,2.71.2,4.06.36,2.37.29,4.78.48,7.2.59,3.14.14,6.26.23,9.39.28l-.24,0c10.93.22,21.85,0,32.77,0,6.39,0,12.75-.11,19.13-.18a38.2,38.2,0,0,0,35.56-38.55l-1-86.23a54.18,54.18,0,0,0-9.64-30.42l-.09-.14a93.5,93.5,0,0,0-7.53-9.48c-.4-.45-.78-.89-1.18-1.32a97.78,97.78,0,0,0-16.89-14.45c-14.54-9.84-30.14-15.51-47-16.43-1.36-.08-2.71-.2-4.06-.36-2.38-.29-4.78-.48-7.21-.59-3.13-.13-6.25-.23-9.39-.28-11.21-.24-22.42-.06-33.62,0-6.39.06-12.75.11-19.13.19A38.2,38.2,0,0,0,910,1678.54Zm24.88,60.77a72.38,72.38,0,1,1,144.75,1.55,74,74,0,0,1-1.47,13.91,71.92,71.92,0,0,1-11.9,27.25,81.79,81.79,0,0,0,10.92-20.71c.79-2.18,1.48-4.38,2.07-6.56a72.41,72.41,0,0,1-52.94,55.45c1.85-.61,3.69-1.29,5.48-2-2.14.79-4.35,1.45-6.58,2a71.52,71.52,0,0,1-18.73,2.24A72.37,72.37,0,0,1,934.88,1739.31Z"/><path d="M699.84,294.63c8.95,1.59,7.67,5.89,6.07,11.94C697.82,337.2,689,367.74,683,398.79c-7.55,38.85-6,78.21.27,117.19,10.81,67.49,36.24,128.82,80.31,181.51,55,65.77,124.15,107.84,209.77,119.78,113.43,15.8,208.61-21.54,287.46-102.65,50.06-51.49,79.41-114.34,93.15-184.06,14.64-74.25,7.51-147.39-17.57-218.83-1.65-4.72-9.05-11-.51-15.41,7.25-3.71,9.11,4.82,12.14,8.56,39.84,49.32,63.67,105.76,73.52,168.23,12.71,80.67,2.39,158.58-32.6,232.11-25.29,53.15-53.78,104.82-81.81,156.62q-129,238.32-258.66,476.24c-.48.88-.87,1.82-1.4,2.67-6.81,10.77-14.66,21.07-28.67,20.91-13.06-.15-19.47-10.56-25-20.76Q861.61,1098.44,730,855.89c-24.14-44.48-48.55-88.83-71.77-133.79A399.42,399.42,0,0,1,615.8,580.67c-10-92.36,8.47-177.83,60.7-255.26C683.77,314.63,692.21,304.64,699.84,294.63Z"/><path class="cls-1" d="M1072,228c14.43,0,27.88-.61,41.25.13,24.42,1.37,48.85,3.08,73.18,5.55,12.27,1.25,13.68,5.75,6.38,15.58a1760.78,1760.78,0,0,0-178.13,297.11c-10.27,21.72-17.78,44.74-26.55,67.16-1.06,2.7-2.07,5.41-3.1,8.12l-2.85,0c-1.38-7.88-3.07-15.72-4.1-23.65q-7.51-57.76-14.7-115.59c-4.65-37.54-9.36-75.08-13.6-112.68-3.22-28.63-5.74-57.34-8.59-86-.63-6.34-1.59-12.66-1.9-19-.36-7.23-4-9.5-10.63-8q-24.43,5.48-48.86,11c-11.64,2.68-14,.71-11.15-10.82,16-63.5,31.87-127,48.81-190.27,1.88-7,9.08-14.5,15.78-18,56.08-29,115.68-43.39,179.08-40.58,16.09.71,20.7,7.08,16.18,22.7q-27.72,95.81-55.4,191.62C1072.7,223.76,1072.54,225.07,1072,228Z"/></svg>